<svg width="30" height="30" viewBox="0 0 30 30" fill="none" xmlns="http://www.w3.org/2000/svg">
<path d="M12.9956 14.3988H12.8603L13.161 14.2333C13.7827 13.9124 14.2683 13.3788 14.5293 12.7297C14.7649 12.0489 14.8269 11.3202 14.7098 10.6095C14.6406 9.98024 14.4029 9.38134 14.0219 8.87589C13.6408 8.37043 13.1304 7.97714 12.5446 7.73745C11.7851 7.41052 10.9654 7.24659 10.1386 7.25626L2.5 7.25626L2.5 22.699H9.477C10.1421 22.6999 10.8061 22.6445 11.4619 22.5336C12.1776 22.4325 12.8566 22.1539 13.437 21.7232C14.0175 21.2924 14.4809 20.7233 14.785 20.0675C15.2407 19.1346 15.3729 18.0766 15.1609 17.0602C15.0716 16.4633 14.8235 15.9013 14.4425 15.4331C14.0616 14.9649 13.5619 14.6077 12.9956 14.3988V14.3988ZM6.12381 9.94784H9.13118C9.63877 9.94733 10.1443 10.013 10.6349 10.1433C10.9016 10.2062 11.1415 10.3523 11.3199 10.5604C11.4983 10.7685 11.6059 11.0279 11.6273 11.3011C11.6888 11.6089 11.6888 11.9257 11.6273 12.2335C11.5841 12.4073 11.504 12.5697 11.3924 12.7099C11.2808 12.85 11.1404 12.9644 10.9807 13.0455C10.5153 13.2805 9.99809 13.3943 9.47701 13.3763H6.09375L6.12381 9.94784ZM11.9431 18.5789C11.8754 18.9438 11.6931 19.2776 11.4227 19.5319C11.1523 19.7861 10.8078 19.9474 10.4394 19.9924C10.1125 20.0577 9.78028 20.0929 9.44695 20.0976H6.09375L6.09375 16.0076H9.6725C10.0568 16.0086 10.4381 16.0746 10.8003 16.2031C11.1226 16.3052 11.4054 16.5046 11.61 16.7738C11.8146 17.043 11.931 17.3688 11.9431 17.7068C11.9831 17.9961 11.983 18.2895 11.9431 18.5789V18.5789ZM27.491 17.5714C27.506 17.5414 27.506 17.5113 27.461 17.5414V15.8723C27.4468 15.1079 27.2727 14.3549 26.9497 13.6619C26.4612 12.6194 25.6042 11.7946 24.5439 11.3464C23.3779 10.867 22.0966 10.7415 20.8598 10.9854C19.9201 11.1157 19.0391 11.5183 18.3257 12.1436C17.6122 12.7689 17.0974 13.5895 16.845 14.504C16.4059 15.9067 16.3437 17.4002 16.6646 18.8346C16.8146 19.6438 17.1899 20.3942 17.7472 20.9999C18.4586 21.7242 19.352 22.2436 20.3335 22.5035C21.2788 22.7618 22.2687 22.8131 23.2356 22.6539C24.4501 22.505 25.568 21.9166 26.3783 20.9999C26.7823 20.5709 27.0854 20.0572 27.2655 19.4962C27.3509 19.3678 27.3881 19.2133 27.3707 19.0601H24.4235C24.3922 19.0575 24.3608 19.0648 24.3338 19.081C24.3068 19.0972 24.2856 19.1215 24.2731 19.1503C24.1252 19.4406 23.9127 19.6931 23.6521 19.8886C23.3914 20.084 23.0895 20.2172 22.7695 20.278C22.3231 20.3701 21.8626 20.3701 21.4162 20.278C21.0326 20.2203 20.6689 20.0696 20.357 19.8389C20.0451 19.6083 19.7944 19.3048 19.6268 18.9549C19.495 18.6693 19.4087 18.3649 19.3712 18.0526V17.5714L27.491 17.5714ZM19.5516 15.4062C19.6161 15.1655 19.6965 14.9294 19.7922 14.6994C19.9515 14.3054 20.2232 13.967 20.5735 13.7264C20.9238 13.4857 21.3371 13.3535 21.762 13.3461C22.2062 13.3033 22.6542 13.3651 23.0702 13.5265C23.4474 13.6707 23.7781 13.9149 24.0271 14.2327C24.2761 14.5506 24.4339 14.9302 24.4836 15.3309V15.6467L19.5516 15.6918C19.5464 15.5967 19.5464 15.5013 19.5516 15.4062V15.4062ZM25.0701 7.88776L18.8149 7.88776V9.69225L25.0701 9.67725V7.88776Z" fill="#FFF4E3"/>
</svg>
