<svg width="25" height="25" viewBox="0 0 25 25" fill="none" xmlns="http://www.w3.org/2000/svg">
<path d="M12.4999 2.16992C6.74697 2.16992 2.08325 6.83364 2.08325 12.5866C2.08325 17.1938 5.07772 21.0957 9.22404 22.4697C9.72886 22.5485 9.92181 22.2445 9.92181 21.9749C9.92181 21.7275 9.90878 20.9072 9.90878 20.0348C7.29159 20.5166 6.61448 19.3968 6.40619 18.8108C6.17496 18.241 5.80849 17.736 5.33846 17.3395C4.9739 17.1442 4.45306 16.6624 5.32543 16.6494C6.00146 16.7227 6.59928 17.1212 6.92703 17.7171C6.92805 17.7189 6.92906 17.7207 6.93008 17.7226C7.53122 18.7953 8.88811 19.1775 9.96087 18.5764C10.0059 18.0469 10.2419 17.5517 10.6249 17.1832C8.30725 16.9228 5.88537 16.0243 5.88537 12.04C5.87068 11.0047 6.25272 10.0031 6.95303 9.24052C6.63456 8.3407 6.67182 7.35327 7.05723 6.48008C7.05723 6.48008 7.92958 6.20663 9.92181 7.54781C11.6263 7.07898 13.4257 7.07898 15.1301 7.54781C17.1223 6.19359 17.9947 6.48008 17.9947 6.48008C18.3801 7.35327 18.4173 8.34069 18.0989 9.24052C18.8013 10.0018 19.1836 11.0042 19.1666 12.04C19.1666 16.0373 16.7317 16.9228 14.414 17.1832C14.917 17.693 15.1736 18.3963 15.1171 19.1103C15.1171 20.5035 15.1041 21.6233 15.1041 21.9749C15.1034 22.0304 15.1116 22.0856 15.1286 22.1385C15.2153 22.4081 15.5038 22.5563 15.7734 22.4705C19.921 21.0972 22.9166 17.1947 22.9166 12.5866C22.9166 6.83364 18.2529 2.16992 12.4999 2.16992Z" fill="#030B19"/>
</svg>
