<svg width="25" height="25" viewBox="0 0 25 25" fill="none" xmlns="http://www.w3.org/2000/svg">
<path d="M5.21207 7.29168H5.18274C4.86334 7.31094 4.5434 7.26415 4.2429 7.15422C3.9424 7.04429 3.66779 6.87359 3.43622 6.65278C3.20465 6.43196 3.02109 6.16577 2.897 5.87084C2.77292 5.5759 2.71097 5.25855 2.71503 4.93859C2.71909 4.61864 2.78907 4.30297 2.92061 4.01127C3.05214 3.71958 3.2424 3.45814 3.4795 3.24327C3.7166 3.02841 3.99546 2.86473 4.29865 2.76247C4.60185 2.6602 4.92287 2.62154 5.24168 2.64891C5.56206 2.62571 5.88378 2.66904 6.18661 2.77618C6.48943 2.88333 6.76682 3.05197 7.00132 3.2715C7.23582 3.49103 7.42237 3.7567 7.54923 4.05181C7.67609 4.34693 7.74052 4.66509 7.73847 4.98631C7.73642 5.30753 7.66794 5.62485 7.53733 5.91831C7.40671 6.21178 7.21679 6.47506 6.97951 6.69158C6.74223 6.9081 6.46272 7.07319 6.15855 7.17647C5.85438 7.27974 5.53213 7.31897 5.21207 7.29168Z" fill="#030B19"/>
<path d="M7.31047 10.4167H3.1438L3.1438 22.9167H7.31047L7.31047 10.4167Z" fill="#030B19"/>
<path d="M18.2476 10.4167C17.5454 10.4187 16.8528 10.5793 16.2215 10.8865C15.5902 11.1938 15.0364 11.6398 14.6017 12.1912V10.4167H10.4351V22.9167H14.6017V17.1876C14.6017 16.635 14.8212 16.1051 15.2119 15.7144C15.6026 15.3237 16.1325 15.1042 16.6851 15.1042C17.2376 15.1042 17.7675 15.3237 18.1582 15.7144C18.5489 16.1051 18.7684 16.635 18.7684 17.1876V22.9167H22.9351V15.1042C22.9351 14.4887 22.8138 13.8791 22.5782 13.3104C22.3427 12.7417 21.9974 12.225 21.5621 11.7897C21.1268 11.3544 20.6101 11.0091 20.0414 10.7736C19.4727 10.538 18.8631 10.4167 18.2476 10.4167V10.4167Z" fill="#030B19"/>
</svg>
