<svg width="159" height="170" viewBox="0 0 159 170" fill="none" xmlns="http://www.w3.org/2000/svg">
<path d="M69.9356 169.049C108.56 169.049 139.871 162.19 139.871 153.729C139.871 145.269 108.56 138.41 69.9356 138.41C31.3113 138.41 0 145.269 0 153.729C0 162.19 31.3113 169.049 69.9356 169.049Z" fill="#E7F5FB"/>
<path fill-rule="evenodd" clip-rule="evenodd" d="M90.3836 139.011C126.528 139.011 157.295 142.452 156.884 150.37C156.714 153.659 154.899 156.15 153.164 157.44C145.167 163.387 120.085 167.729 90.3836 167.729C64.7741 167.729 42.5997 164.501 31.8497 159.8C27.4282 157.867 23.7404 154.683 23.8832 150.371C24.1446 142.445 54.2375 139.011 90.3836 139.011Z" fill="#C6E6DA"/>
<path fill-rule="evenodd" clip-rule="evenodd" d="M90.3836 135.78C127.111 135.78 156.884 142.313 156.884 150.37C156.884 158.428 127.111 164.961 90.3836 164.961C53.6566 164.961 23.8831 158.428 23.8831 150.37C23.8819 142.313 53.6553 135.78 90.3836 135.78Z" fill="#ECFFEC"/>
<path fill-rule="evenodd" clip-rule="evenodd" d="M90.3836 143.017C108.207 143.017 122.658 146.187 122.658 150.099C122.658 154.009 108.209 157.18 90.3836 157.18C72.5587 157.18 58.1096 154.01 58.1096 150.099C58.1096 146.189 72.5587 143.017 90.3836 143.017Z" fill="#8F9CAC"/>
<path fill-rule="evenodd" clip-rule="evenodd" d="M54.7654 92.6344H125.87C125.941 92.6344 125.999 92.6925 125.999 92.7632V135.04C125.999 143.06 120.093 149.769 112.414 151.032C107.05 152.377 99.1697 153.228 90.3836 153.228C81.5962 153.228 73.7155 152.378 68.3519 151.032C60.6733 149.769 54.7666 143.062 54.7666 135.04L54.7654 92.6344Z" fill="#C6E6DA"/>
<path d="M137.887 95.0212C147.781 95.0212 154.133 100.598 156.931 107.736C157.985 110.428 158.512 113.323 158.512 116.198C158.512 119.072 157.984 121.968 156.931 124.659C154.133 131.798 147.781 137.375 137.887 137.375V128.636C143.599 128.636 147.235 125.501 148.808 121.486C149.452 119.84 149.775 118.029 149.775 116.198C149.775 114.367 149.453 112.556 148.808 110.91C147.235 106.895 143.599 103.758 137.887 103.758V95.0212ZM137.887 137.375C127.993 137.375 121.64 131.798 118.844 124.659C117.789 121.968 117.261 119.072 117.261 116.198C117.261 113.322 117.789 110.426 118.844 107.735C121.64 100.597 127.993 95.0212 137.887 95.0212V103.758C132.175 103.758 128.539 106.893 126.967 110.909C126.321 112.554 125.999 114.365 125.999 116.197C125.999 118.028 126.321 119.839 126.967 121.484C128.539 125.499 132.175 128.635 137.887 128.635V137.375Z" fill="#C6E6DA"/>
<path d="M127.802 135C123.52 132.713 120.533 128.971 118.844 124.66C117.789 121.968 117.261 119.072 117.261 116.198C117.261 113.322 117.789 110.426 118.844 107.735C120.535 103.417 123.529 99.6714 127.819 97.3855V109.161C127.488 109.719 127.203 110.304 126.967 110.909C126.321 112.554 125.999 114.365 125.999 116.197C125.999 118.028 126.321 119.839 126.967 121.485C127.204 122.09 127.488 122.676 127.819 123.232V134.169C127.819 134.45 127.813 134.726 127.802 135Z" fill="#C6E6DA"/>
<path fill-rule="evenodd" clip-rule="evenodd" d="M125.999 92.6179V135.039C125.999 143.951 119.874 149.694 111.114 151.338C98.2567 153.747 84.1902 154.007 71.393 151.691C70.3423 151.5 67.3631 148.899 66.695 148.126C64.2424 145.284 62.7534 141.588 62.7534 137.562V95.1564L125.999 92.6179Z" fill="#C6E6DA"/>
<path fill-rule="evenodd" clip-rule="evenodd" d="M90.3836 84.803C110.054 84.803 126.001 88.3026 126.001 92.6167C126.001 96.9321 110.055 100.432 90.3836 100.432C70.7123 100.432 54.7666 96.9334 54.7666 92.6167C54.7666 88.3026 70.7123 84.803 90.3836 84.803Z" fill="#ECFFEC"/>
<path fill-rule="evenodd" clip-rule="evenodd" d="M90.3836 87.392C106.996 87.392 120.464 89.731 120.464 92.618C120.464 95.5038 106.996 97.844 90.3836 97.844C73.7711 97.844 60.3033 95.5038 60.3033 92.618C60.3033 89.7322 73.7698 87.392 90.3836 87.392Z" fill="#C6E6DA"/>
<path fill-rule="evenodd" clip-rule="evenodd" d="M116.926 95.0781C111.862 96.7237 101.876 97.8439 90.3836 97.8439C78.8898 97.8439 68.9038 96.7237 63.8395 95.0781C68.9038 93.4325 78.8898 92.3123 90.3836 92.3123C101.876 92.3123 111.862 93.4325 116.926 95.0781Z" fill="#5C3D30"/>
<path fill-rule="evenodd" clip-rule="evenodd" d="M116.927 95.0781C115.307 95.6035 113.184 96.0758 110.671 96.4762C111.943 95.8258 112.558 95.2751 112.192 94.9405C110.952 93.8038 99.2683 94.3204 96.7867 93.8038C94.3063 93.2873 85.2069 93.8038 82.3123 94.5275C80.4558 94.9922 76.9398 94.4353 75.2576 93.0208C79.7006 92.5712 84.8672 92.3123 90.3824 92.3123C101.876 92.3123 111.862 93.4325 116.927 95.0781Z" fill="#A17E6F"/>
<path fill-rule="evenodd" clip-rule="evenodd" d="M79.7448 94.3318C80.255 94.3318 80.6705 94.2219 80.6705 94.088C80.6705 93.9542 80.255 93.8443 79.7448 93.8443C79.2346 93.8443 78.8191 93.9529 78.8191 94.088C78.8191 94.2219 79.2346 94.3318 79.7448 94.3318Z" fill="#5C3D30"/>
<path fill-rule="evenodd" clip-rule="evenodd" d="M81.9739 93.8505C82.7973 93.8505 83.4692 93.6738 83.4692 93.4578C83.4692 93.2418 82.7973 93.0638 81.9739 93.0638C81.1505 93.0638 80.4799 93.2406 80.4799 93.4578C80.4799 93.675 81.1505 93.8505 81.9739 93.8505Z" fill="#5C3D30"/>
<path fill-rule="evenodd" clip-rule="evenodd" d="M99.7759 93.685C100.286 93.685 100.702 93.5752 100.702 93.4413C100.702 93.3074 100.286 93.1975 99.7759 93.1975C99.2657 93.1975 98.8502 93.3074 98.8502 93.4413C98.8502 93.5752 99.2657 93.685 99.7759 93.685Z" fill="#5C3D30"/>
<path fill-rule="evenodd" clip-rule="evenodd" d="M65.2224 59.7718C62.6751 55.6004 65.4965 48.5381 72.4514 48.3196C77.3578 48.1655 83.9541 50.3997 88.0889 59.5748C86.8866 50.3024 82.4095 41.7688 73.5072 41.8029C63.5073 41.8421 58.491 53 65.2224 59.7718Z" fill="#DFCEAD"/>
<path fill-rule="evenodd" clip-rule="evenodd" d="M89.007 78.0956C121.993 46.0047 72.027 38.8288 89.007 0.180786C56.4337 35.5565 107.322 43.1442 89.007 78.0956Z" fill="#DFCEAD"/>
</svg>
