<svg width="25" height="26" viewBox="0 0 25 26" fill="none" xmlns="http://www.w3.org/2000/svg">
<path d="M24.2608 8.33832C24.2608 8.33832 24.2608 8.33832 24.2608 8.27569C23.3783 5.86619 21.7771 3.78589 19.6736 2.3162C17.5701 0.846504 15.066 0.0583496 12.5 0.0583496C9.93397 0.0583496 7.42986 0.846504 5.3264 2.3162C3.22295 3.78589 1.62166 5.86619 0.739162 8.27569C0.739162 8.27569 0.739162 8.27569 0.739162 8.33832C-0.246387 11.0573 -0.246387 14.036 0.739162 16.755C0.739162 16.755 0.739162 16.755 0.739162 16.8176C1.62166 19.2271 3.22295 21.3074 5.3264 22.7771C7.42986 24.2468 9.93397 25.035 12.5 25.035C15.066 25.035 17.5701 24.2468 19.6736 22.7771C21.7771 21.3074 23.3783 19.2271 24.2608 16.8176C24.2608 16.8176 24.2608 16.8176 24.2608 16.755C25.2464 14.036 25.2464 11.0573 24.2608 8.33832ZM2.78071 15.0516C2.34639 13.4099 2.34639 11.6834 2.78071 10.0417H5.11034C4.90998 11.7057 4.90998 13.3877 5.11034 15.0516H2.78071ZM3.80775 17.5566H5.56123C5.85521 18.6736 6.27541 19.7535 6.81372 20.7755C5.5854 19.9387 4.55861 18.8392 3.80775 17.5566ZM5.56123 7.53673H3.80775C4.54781 6.25804 5.56147 5.15884 6.77614 4.31784C6.25079 5.34142 5.84322 6.42129 5.56123 7.53673ZM11.2225 22.1908C9.68412 21.0619 8.6037 19.4168 8.17893 17.5566H11.2225V22.1908ZM11.2225 15.0516H7.64036C7.40663 13.3898 7.40663 11.7035 7.64036 10.0417H11.2225V15.0516ZM11.2225 7.53673H8.17893C8.6037 5.67649 9.68412 4.03142 11.2225 2.90253V7.53673ZM21.1421 7.53673H19.3887C19.0947 6.41971 18.6745 5.33979 18.1362 4.31784C19.3645 5.15459 20.3913 6.25411 21.1421 7.53673ZM13.7274 2.90253C15.2658 4.03142 16.3462 5.67649 16.771 7.53673H13.7274V2.90253ZM13.7274 22.1908V17.5566H16.771C16.3462 19.4168 15.2658 21.0619 13.7274 22.1908ZM17.3095 15.0516H13.7274V10.0417H17.3095C17.5433 11.7035 17.5433 13.3898 17.3095 15.0516ZM18.1738 20.7755C18.7121 19.7535 19.1323 18.6736 19.4262 17.5566H21.1797C20.4289 18.8392 19.4021 19.9387 18.1738 20.7755ZM22.1692 15.0516H19.8396C19.9414 14.2206 19.9916 13.384 19.9899 12.5467C19.9912 11.7094 19.941 10.8728 19.8396 10.0417H22.1692C22.6035 11.6834 22.6035 13.4099 22.1692 15.0516Z" fill="#030B19"/>
</svg>
