<svg width="25" height="25" viewBox="0 0 25 25" fill="none" xmlns="http://www.w3.org/2000/svg">
<path d="M24.2608 8.27997C24.2608 8.27997 24.2608 8.27997 24.2608 8.21734C23.3783 5.80784 21.7771 3.72754 19.6736 2.25785C17.5701 0.788154 15.066 0 12.5 0C9.93397 0 7.42986 0.788154 5.3264 2.25785C3.22295 3.72754 1.62166 5.80784 0.739162 8.21734C0.739162 8.21734 0.739162 8.21734 0.739162 8.27997C-0.246387 10.999 -0.246387 13.9777 0.739162 16.6967C0.739162 16.6967 0.739162 16.6967 0.739162 16.7593C1.62166 19.1688 3.22295 21.2491 5.3264 22.7188C7.42986 24.1885 9.93397 24.9766 12.5 24.9766C15.066 24.9766 17.5701 24.1885 19.6736 22.7188C21.7771 21.2491 23.3783 19.1688 24.2608 16.7593C24.2608 16.7593 24.2608 16.7593 24.2608 16.6967C25.2464 13.9777 25.2464 10.999 24.2608 8.27997ZM2.78071 14.9933C2.34639 13.3515 2.34639 11.6251 2.78071 9.98335H5.11034C4.90998 11.6473 4.90998 13.3293 5.11034 14.9933H2.78071ZM3.80775 17.4983H5.56123C5.85521 18.6153 6.27541 19.6952 6.81372 20.7171C5.5854 19.8804 4.55861 18.7809 3.80775 17.4983ZM5.56123 7.47838H3.80775C4.54781 6.1997 5.56147 5.10049 6.77614 4.25949C6.25079 5.28307 5.84322 6.36294 5.56123 7.47838ZM11.2225 22.1325C9.68412 21.0036 8.6037 19.3585 8.17893 17.4983H11.2225V22.1325ZM11.2225 14.9933H7.64036C7.40663 13.3315 7.40663 11.6451 7.64036 9.98335H11.2225V14.9933ZM11.2225 7.47838H8.17893C8.6037 5.61814 9.68412 3.97307 11.2225 2.84418V7.47838ZM21.1421 7.47838H19.3887C19.0947 6.36136 18.6745 5.28144 18.1362 4.25949C19.3645 5.09624 20.3913 6.19576 21.1421 7.47838ZM13.7274 2.84418C15.2658 3.97307 16.3462 5.61814 16.771 7.47838H13.7274V2.84418ZM13.7274 22.1325V17.4983H16.771C16.3462 19.3585 15.2658 21.0036 13.7274 22.1325ZM17.3095 14.9933H13.7274V9.98335H17.3095C17.5433 11.6451 17.5433 13.3315 17.3095 14.9933ZM18.1738 20.7171C18.7121 19.6952 19.1323 18.6153 19.4262 17.4983H21.1797C20.4289 18.7809 19.4021 19.8804 18.1738 20.7171ZM22.1692 14.9933H19.8396C19.9414 14.1622 19.9916 13.3256 19.9899 12.4883C19.9912 11.651 19.941 10.8145 19.8396 9.98335H22.1692C22.6035 11.6251 22.6035 13.3515 22.1692 14.9933Z" fill="#FFF4E3"/>
</svg>
