<svg width="67" height="73" viewBox="0 0 67 73" fill="none" xmlns="http://www.w3.org/2000/svg">
<path d="M43.791 72.9992C39.4584 73.0328 35.1644 72.1835 31.1709 70.5032C27.1773 68.8228 23.5679 66.3466 20.5627 63.2255C17.572 60.1131 15.2152 56.4487 13.6238 52.4364C11.9183 48.1866 11.0561 43.6455 11.0852 39.0664C11.0572 34.5284 11.9196 30.0291 13.6238 25.8232C15.226 21.829 17.5817 18.1804 20.5627 15.0764C23.5131 12.0118 27.0346 9.55391 30.9287 7.84139C34.9872 6.08709 39.3699 5.20767 43.791 5.26047C47.5978 5.17807 51.3904 5.75054 55.0032 6.95288C58.4412 8.26813 61.6315 10.1565 64.4384 12.5378C64.8409 12.8202 65.1976 13.1627 65.4962 13.5533C65.7322 13.8853 65.9044 14.2583 66.0039 14.6533C66.0949 15.0845 66.1374 15.5244 66.1308 15.965C66.144 16.4654 66.0487 16.9627 65.8515 17.4228C65.6543 17.8829 65.3599 18.2949 64.9885 18.6305C64.1942 19.3854 63.1468 19.8168 62.0513 19.8403C60.9558 19.8638 59.8909 19.4776 59.065 18.7574C57.132 17.0523 54.9488 15.6538 52.5915 14.611C49.7683 13.5507 46.7625 13.0617 43.7487 13.1725C40.5067 13.1527 37.3 13.846 34.3558 15.2034C31.4368 16.5447 28.8069 18.4417 26.6131 20.7883C24.3653 23.1794 22.5985 25.9804 21.4089 29.0388C20.1637 32.2481 19.5461 35.6666 19.5895 39.1087C19.5596 42.5673 20.1915 45.9996 21.4512 49.2208C22.6408 52.2792 24.4077 55.0803 26.6554 57.4713C28.8441 59.813 31.4759 61.697 34.3981 63.014C39.9585 65.4769 46.2635 65.6592 51.9569 63.5217C54.5982 62.4925 57.0887 61.1121 59.3612 59.4176C60.2027 58.7197 61.2728 58.358 62.3652 58.4021C63.3308 58.4618 64.2379 58.8851 64.9038 59.5868C65.6154 60.3872 65.9806 61.437 65.9193 62.5062C65.9164 63.0732 65.8013 63.634 65.5808 64.1563C65.342 64.7114 64.9971 65.2144 64.5653 65.6372C61.6339 67.9984 58.3312 69.857 54.7917 71.1375C51.2609 72.3928 47.5382 73.0228 43.791 72.9992Z" fill="#FFB5A7"/>
<path d="M24.9461 30.1725C22.1452 40.8516 1.80242 33.8789 0 19.8657C0 19.8657 3.99409 23.0898 13.3616 21.6089C22.3652 19.8657 25.86 26.6946 24.9461 30.1725Z" fill="#3BA99C"/>
<path d="M23.9053 30.528C34.4067 34.759 41.0494 13.7224 30.5988 3.69482C30.5988 3.69482 30.8272 8.94976 23.9053 15.7617C16.9749 22.1252 20.4782 29.1571 23.9053 30.528Z" fill="#69D1C5"/>
<path d="M24.2437 7.79894C23.7783 5.92036 20.3088 -0.933901 15.0201 0.106932C10.5267 1.44394 12.033 5.51418 12.6253 6.96119C11.1191 6.46193 4.78099 3.44944 2.64855 6.96119C0.34687 10.7014 -1.9125 22.4806 10.5775 22.616L10.4929 22.7006C10.4929 22.7006 2.75009 29.1148 9.18125 35.1229C12.9723 38.6685 16.8563 34.1836 18.8026 32.3981C26.5877 38.6431 33.7297 30.4942 27.1039 22.3621C27.3209 22.3722 27.5375 22.3346 27.7385 22.2521C38.8492 16.9041 28.4493 3.26328 24.2437 7.79894Z" fill="white"/>
<path d="M22.89 10.5914C22.543 9.17823 19.9283 4.05023 15.9849 4.82874C12.6001 5.83572 13.7425 8.88206 14.191 9.96521C13.0571 9.58441 8.31832 7.33351 6.71899 9.96521C5.02658 12.7831 3.33417 21.609 12.6424 21.7021L12.5832 21.7698C12.5832 21.7698 6.78669 26.5762 11.5931 31.078C14.4448 33.7436 17.3473 30.3757 18.8113 29.0471C24.6332 33.7182 29.9896 27.617 25.0224 21.5244C25.184 21.5323 25.3454 21.5064 25.4963 21.4482C33.8483 17.4118 26.0379 7.18965 22.89 10.5914Z" fill="#F8EDE8"/>
<path d="M17.6434 18.0294L20.749 14.7207L18.6081 18.5709L21.5359 20.5172L18.3881 19.5864L16.8734 23.5297L17.0595 19.6626L13.0654 20.9149L16.7549 18.9264L15.2317 14.323L17.6434 18.0294Z" fill="#FCD5CE"/>
<path d="M14.5294 14.6957C14.8145 14.6957 15.0456 14.4646 15.0456 14.1795C15.0456 13.8944 14.8145 13.6633 14.5294 13.6633C14.2443 13.6633 14.0132 13.8944 14.0132 14.1795C14.0132 14.4646 14.2443 14.6957 14.5294 14.6957Z" fill="#FFB5A7"/>
<path d="M15.054 19.4428C15.3391 19.4428 15.5702 19.2117 15.5702 18.9266C15.5702 18.6415 15.3391 18.4104 15.054 18.4104C14.7689 18.4104 14.5378 18.6415 14.5378 18.9266C14.5378 19.2117 14.7689 19.4428 15.054 19.4428Z" fill="#FFB5A7"/>
<path d="M13.0655 17.4711C13.3506 17.4711 13.5817 17.24 13.5817 16.9549C13.5817 16.6698 13.3506 16.4387 13.0655 16.4387C12.7804 16.4387 12.5493 16.6698 12.5493 16.9549C12.5493 17.24 12.7804 17.4711 13.0655 17.4711Z" fill="#FFB5A7"/>
<path d="M15.5701 16.9464C15.8552 16.9464 16.0863 16.7153 16.0863 16.4302C16.0863 16.1452 15.8552 15.9141 15.5701 15.9141C15.2851 15.9141 15.054 16.1452 15.054 16.4302C15.054 16.7153 15.2851 16.9464 15.5701 16.9464Z" fill="#FFB5A7"/>
<path d="M17.2965 16.1596C17.5815 16.1596 17.8126 15.9285 17.8126 15.6434C17.8126 15.3583 17.5815 15.1272 17.2965 15.1272C17.0114 15.1272 16.7803 15.3583 16.7803 15.6434C16.7803 15.9285 17.0114 16.1596 17.2965 16.1596Z" fill="#FFB5A7"/>
</svg>
