<svg width="196" height="19" viewBox="0 0 196 19" fill="none" xmlns="http://www.w3.org/2000/svg">
<path d="M192.326 6H195.422L193.31 18H190.214L190.406 16.896C189.366 17.856 188.038 18.336 186.422 18.336C184.614 18.336 183.27 17.672 182.39 16.344C181.51 15.016 181.238 13.472 181.574 11.712C181.878 10 182.646 8.568 183.878 7.416C185.126 6.248 186.614 5.664 188.342 5.664C190.038 5.664 191.27 6.312 192.038 7.608L192.326 6ZM187.382 15.384C188.31 15.384 189.134 15.096 189.854 14.52C190.574 13.928 191.038 13.152 191.246 12.192L191.294 11.808C191.422 10.832 191.214 10.056 190.67 9.48C190.142 8.904 189.422 8.616 188.51 8.616C187.566 8.616 186.734 8.92 186.014 9.528C185.294 10.12 184.846 10.936 184.67 11.976C184.494 12.984 184.662 13.808 185.174 14.448C185.686 15.072 186.422 15.384 187.382 15.384Z" fill="#3B526E"/>
<path d="M177.763 7.92C178.627 6.44799 179.971 5.72799 181.795 5.75999L181.195 9.21599C180.635 9.15199 180.083 9.19199 179.539 9.33599C179.011 9.46399 178.499 9.76799 178.003 10.248C177.507 10.728 177.179 11.36 177.019 12.144L175.987 18H172.891L175.003 6H178.099L177.763 7.92Z" fill="#3B526E"/>
<path d="M169.071 6H172.167L170.055 18H166.959L167.199 16.704C166.255 17.792 165.015 18.336 163.479 18.336C162.135 18.336 161.095 17.888 160.359 16.992C159.623 16.096 159.391 14.888 159.663 13.368L160.959 6H164.055L162.831 12.984C162.687 13.8 162.791 14.416 163.143 14.832C163.511 15.248 164.055 15.456 164.775 15.456C165.511 15.456 166.151 15.24 166.695 14.808C167.255 14.376 167.647 13.728 167.871 12.864L169.071 6Z" fill="#3B526E"/>
<path d="M154.032 5.664C155.392 5.664 156.424 6.12 157.128 7.032C157.848 7.944 158.08 9.136 157.824 10.608L156.504 18H153.408L154.656 10.824C154.784 10.104 154.704 9.544 154.416 9.144C154.144 8.744 153.688 8.544 153.048 8.544C151.704 8.544 150.824 9.304 150.408 10.824L149.16 18H146.064L147.312 10.824C147.44 10.104 147.36 9.544 147.072 9.144C146.8 8.744 146.352 8.544 145.728 8.544C145.024 8.544 144.424 8.768 143.928 9.216C143.448 9.664 143.136 10.32 142.992 11.184L141.792 18H138.696L140.808 6H143.904L143.688 7.2C144.616 6.176 145.776 5.664 147.168 5.664C148.64 5.664 149.656 6.264 150.216 7.464C151.192 6.264 152.464 5.664 154.032 5.664Z" fill="#3B526E"/>
<path d="M134.881 6H137.977L135.865 18H132.769L132.961 16.896C131.921 17.856 130.593 18.336 128.977 18.336C127.169 18.336 125.825 17.672 124.945 16.344C124.065 15.016 123.793 13.472 124.129 11.712C124.433 10 125.201 8.568 126.433 7.416C127.681 6.248 129.169 5.664 130.897 5.664C132.593 5.664 133.825 6.312 134.593 7.608L134.881 6ZM129.937 15.384C130.865 15.384 131.689 15.096 132.409 14.52C133.129 13.928 133.593 13.152 133.801 12.192L133.849 11.808C133.977 10.832 133.769 10.056 133.225 9.48C132.697 8.904 131.977 8.616 131.065 8.616C130.121 8.616 129.289 8.92 128.569 9.528C127.849 10.12 127.401 10.936 127.225 11.976C127.049 12.984 127.217 13.808 127.729 14.448C128.241 15.072 128.977 15.384 129.937 15.384Z" fill="#3B526E"/>
<path d="M124.958 6.00001L119.174 11.928L122.99 18H119.63L116.198 12.36L115.214 18H112.118L115.07 1.20001H118.166L116.438 11.064L121.286 6.00001H124.958Z" fill="#3B526E"/>
<path d="M108.303 6H111.399L109.287 18H106.191L106.383 16.896C105.343 17.856 104.015 18.336 102.399 18.336C100.591 18.336 99.2469 17.672 98.3669 16.344C97.4869 15.016 97.2149 13.472 97.5509 11.712C97.8549 10 98.6229 8.568 99.8549 7.416C101.103 6.248 102.591 5.664 104.319 5.664C106.015 5.664 107.247 6.312 108.015 7.608L108.303 6ZM103.359 15.384C104.287 15.384 105.111 15.096 105.831 14.52C106.551 13.928 107.015 13.152 107.223 12.192L107.271 11.808C107.399 10.832 107.191 10.056 106.647 9.48C106.119 8.904 105.399 8.616 104.487 8.616C103.543 8.616 102.711 8.92 101.991 9.528C101.271 10.12 100.823 10.936 100.647 11.976C100.471 12.984 100.639 13.808 101.151 14.448C101.663 15.072 102.399 15.384 103.359 15.384Z" fill="#3B526E"/>
<path d="M91.9542 5.664C93.2982 5.664 94.3382 6.112 95.0742 7.008C95.8102 7.904 96.0422 9.112 95.7702 10.632L94.4742 18H91.3782L92.6022 11.016C92.7462 10.2 92.6342 9.584 92.2662 9.168C91.9142 8.752 91.3782 8.544 90.6582 8.544C89.9222 8.544 89.2742 8.76 88.7142 9.192C88.1702 9.624 87.7862 10.272 87.5622 11.136L86.3622 18H83.2662L85.3782 6H88.4742L88.2342 7.296C89.1782 6.208 90.4182 5.664 91.9542 5.664Z" fill="#3B526E"/>
<path d="M76.7125 4.00802C76.2805 4.37602 75.8005 4.56002 75.2725 4.56002C74.7445 4.56002 74.3285 4.37602 74.0245 4.00802C73.7205 3.62402 73.6085 3.17602 73.6885 2.66402C73.7685 2.13602 74.0246 1.68802 74.4566 1.32002C74.8886 0.936018 75.3685 0.744019 75.8965 0.744019C76.4245 0.744019 76.8405 0.936018 77.1445 1.32002C77.4645 1.70402 77.5845 2.15202 77.5045 2.66402C77.4085 3.19202 77.1445 3.64002 76.7125 4.00802ZM71.3365 18L73.4485 6.00002H76.5445L74.4325 18H71.3365Z" fill="#3B526E"/>
<path d="M71.7781 6.00001L65.9941 11.928L69.8101 18H66.4501L63.0181 12.36L62.0341 18H58.9381L61.8901 1.20001H64.9861L63.2581 11.064L68.1061 6.00001H71.7781Z" fill="#3B526E"/>
<path d="M55.1233 6H58.2193L56.1073 18H53.0113L53.2033 16.896C52.1633 17.856 50.8353 18.336 49.2193 18.336C47.4113 18.336 46.0673 17.672 45.1873 16.344C44.3073 15.016 44.0353 13.472 44.3713 11.712C44.6753 10 45.4433 8.568 46.6753 7.416C47.9233 6.248 49.4113 5.664 51.1393 5.664C52.8353 5.664 54.0673 6.312 54.8353 7.608L55.1233 6ZM50.1793 15.384C51.1073 15.384 51.9313 15.096 52.6513 14.52C53.3713 13.928 53.8353 13.152 54.0433 12.192L54.0913 11.808C54.2193 10.832 54.0113 10.056 53.4673 9.48C52.9393 8.904 52.2193 8.616 51.3073 8.616C50.3633 8.616 49.5313 8.92 48.8113 9.528C48.0913 10.12 47.6433 10.936 47.4673 11.976C47.2913 12.984 47.4593 13.808 47.9713 14.448C48.4833 15.072 49.2193 15.384 50.1793 15.384Z" fill="#3B526E"/>
<path d="M37.5768 18.336C35.1288 18.336 33.5048 17.352 32.7048 15.384L35.4888 13.992C35.8088 15.016 36.5928 15.528 37.8408 15.528C38.8808 15.528 39.4648 15.216 39.5928 14.592C39.6408 14.256 39.4648 13.984 39.0648 13.776C38.6648 13.568 38.1688 13.376 37.5768 13.2C36.9848 13.024 36.4008 12.816 35.8248 12.576C35.2488 12.32 34.7928 11.904 34.4568 11.328C34.1208 10.752 34.0248 10.04 34.1688 9.192C34.3768 8.072 34.9448 7.208 35.8728 6.6C36.8168 5.976 37.8728 5.664 39.0408 5.664C40.0808 5.664 40.9928 5.888 41.7768 6.336C42.5608 6.784 43.1368 7.408 43.5048 8.208L40.7208 9.6C40.4328 8.8 39.8168 8.4 38.8728 8.4C37.9448 8.4 37.4088 8.744 37.2648 9.432C37.2008 9.8 37.3608 10.088 37.7448 10.296C38.1448 10.504 38.6408 10.688 39.2328 10.848C39.8408 11.008 40.4328 11.208 41.0088 11.448C41.6008 11.672 42.0648 12.072 42.4008 12.648C42.7368 13.208 42.8248 13.936 42.6648 14.832C42.4568 16 41.8888 16.88 40.9608 17.472C40.0488 18.048 38.9208 18.336 37.5768 18.336Z" fill="#3B526E"/>
<path d="M32.5329 4.00802C32.1009 4.37602 31.6209 4.56002 31.0929 4.56002C30.5649 4.56002 30.1489 4.37602 29.8449 4.00802C29.5409 3.62402 29.4289 3.17602 29.5089 2.66402C29.5889 2.13602 29.8449 1.68802 30.2769 1.32002C30.7089 0.936018 31.1889 0.744019 31.7169 0.744019C32.2449 0.744019 32.6609 0.936018 32.9649 1.32002C33.2849 1.70402 33.4049 2.15202 33.3249 2.66402C33.2289 3.19202 32.9649 3.64002 32.5329 4.00802ZM27.1569 18L29.2689 6.00002H32.3649L30.2529 18H27.1569Z" fill="#3B526E"/>
<path d="M22.0402 5.66401C23.3842 5.66401 24.4242 6.11201 25.1602 7.00801C25.8962 7.90401 26.1282 9.11201 25.8562 10.632L24.5602 18H21.4642L22.6882 11.016C22.8322 10.2 22.7202 9.58401 22.3522 9.16801C22.0002 8.75201 21.4642 8.54401 20.7442 8.54401C20.0082 8.54401 19.3602 8.76001 18.8002 9.19201C18.2562 9.62401 17.8722 10.28 17.6482 11.16L16.4482 18H13.3522L16.3042 1.20001H19.4002L18.3202 7.32001C19.2482 6.21601 20.4882 5.66401 22.0402 5.66401Z" fill="#3B526E"/>
<path d="M6.53077 18.336C4.67477 18.336 3.21877 17.704 2.16277 16.44C1.12277 15.16 0.75477 13.6 1.05877 11.76C1.33077 10 2.13877 8.544 3.48277 7.392C4.84277 6.24 6.42677 5.664 8.23477 5.664C9.46677 5.664 10.5228 5.952 11.4028 6.528C12.2828 7.088 12.9148 7.84 13.2988 8.784L10.4908 10.272C10.0588 9.232 9.21877 8.712 7.97077 8.712C7.04277 8.712 6.21077 9.016 5.47477 9.624C4.75477 10.216 4.31477 10.984 4.15477 11.928C3.99477 12.888 4.16277 13.688 4.65877 14.328C5.15477 14.952 5.86677 15.264 6.79477 15.264C8.04277 15.264 9.03477 14.728 9.77077 13.656L12.2668 15.264C11.6588 16.256 10.8428 17.016 9.81877 17.544C8.81077 18.072 7.71477 18.336 6.53077 18.336Z" fill="#3B526E"/>
</svg>
