<svg width="196" height="19" viewBox="0 0 196 19" fill="none" xmlns="http://www.w3.org/2000/svg">
<path d="M192.326 6.00006H195.422L193.31 18.0001H190.214L190.406 16.8961C189.366 17.8561 188.038 18.3361 186.422 18.3361C184.614 18.3361 183.27 17.6721 182.39 16.3441C181.51 15.0161 181.238 13.4721 181.574 11.7121C181.878 10.0001 182.646 8.56806 183.878 7.41606C185.126 6.24806 186.614 5.66406 188.342 5.66406C190.038 5.66406 191.27 6.31206 192.038 7.60806L192.326 6.00006ZM187.382 15.3841C188.31 15.3841 189.134 15.0961 189.854 14.5201C190.574 13.9281 191.038 13.1521 191.246 12.1921L191.294 11.8081C191.422 10.8321 191.214 10.0561 190.67 9.48006C190.142 8.90406 189.422 8.61606 188.51 8.61606C187.566 8.61606 186.734 8.92006 186.014 9.52806C185.294 10.1201 184.846 10.9361 184.67 11.9761C184.494 12.9841 184.662 13.8081 185.174 14.4481C185.686 15.0721 186.422 15.3841 187.382 15.3841Z" fill="#8F9CAC"/>
<path d="M177.763 7.91981C178.627 6.44781 179.971 5.72781 181.795 5.75981L181.195 9.21581C180.635 9.15181 180.083 9.19181 179.539 9.33581C179.011 9.46381 178.499 9.76781 178.003 10.2478C177.507 10.7278 177.179 11.3598 177.019 12.1438L175.987 17.9998H172.891L175.003 5.99981H178.099L177.763 7.91981Z" fill="#8F9CAC"/>
<path d="M169.071 6H172.167L170.055 18H166.959L167.199 16.704C166.255 17.792 165.015 18.336 163.479 18.336C162.135 18.336 161.095 17.888 160.359 16.992C159.623 16.096 159.391 14.888 159.663 13.368L160.959 6H164.055L162.831 12.984C162.687 13.8 162.791 14.416 163.143 14.832C163.511 15.248 164.055 15.456 164.775 15.456C165.511 15.456 166.151 15.24 166.695 14.808C167.255 14.376 167.647 13.728 167.871 12.864L169.071 6Z" fill="#8F9CAC"/>
<path d="M154.032 5.66406C155.392 5.66406 156.424 6.12006 157.128 7.03206C157.848 7.94406 158.08 9.13606 157.824 10.6081L156.504 18.0001H153.408L154.656 10.8241C154.784 10.1041 154.704 9.54406 154.416 9.14406C154.144 8.74406 153.688 8.54406 153.048 8.54406C151.704 8.54406 150.824 9.30406 150.408 10.8241L149.16 18.0001H146.064L147.312 10.8241C147.44 10.1041 147.36 9.54406 147.072 9.14406C146.8 8.74406 146.352 8.54406 145.728 8.54406C145.024 8.54406 144.424 8.76806 143.928 9.21606C143.448 9.66406 143.136 10.3201 142.992 11.1841L141.792 18.0001H138.696L140.808 6.00006H143.904L143.688 7.20006C144.616 6.17606 145.776 5.66406 147.168 5.66406C148.64 5.66406 149.656 6.26406 150.216 7.46406C151.192 6.26406 152.464 5.66406 154.032 5.66406Z" fill="#8F9CAC"/>
<path d="M134.881 6.00006H137.977L135.865 18.0001H132.769L132.961 16.8961C131.921 17.8561 130.593 18.3361 128.977 18.3361C127.169 18.3361 125.825 17.6721 124.945 16.3441C124.065 15.0161 123.793 13.4721 124.129 11.7121C124.433 10.0001 125.201 8.56806 126.433 7.41606C127.681 6.24806 129.169 5.66406 130.897 5.66406C132.593 5.66406 133.825 6.31206 134.593 7.60806L134.881 6.00006ZM129.937 15.3841C130.865 15.3841 131.689 15.0961 132.409 14.5201C133.129 13.9281 133.593 13.1521 133.801 12.1921L133.849 11.8081C133.977 10.8321 133.769 10.0561 133.225 9.48006C132.697 8.90406 131.977 8.61606 131.065 8.61606C130.121 8.61606 129.289 8.92006 128.569 9.52806C127.849 10.1201 127.401 10.9361 127.225 11.9761C127.049 12.9841 127.217 13.8081 127.729 14.4481C128.241 15.0721 128.977 15.3841 129.937 15.3841Z" fill="#8F9CAC"/>
<path d="M124.958 6.0002L119.174 11.9282L122.99 18.0002H119.63L116.198 12.3602L115.214 18.0002H112.118L115.07 1.2002H118.166L116.438 11.0642L121.286 6.0002H124.958Z" fill="#8F9CAC"/>
<path d="M108.303 6.00006H111.399L109.287 18.0001H106.191L106.383 16.8961C105.343 17.8561 104.015 18.3361 102.399 18.3361C100.591 18.3361 99.2469 17.6721 98.3669 16.3441C97.4869 15.0161 97.2149 13.4721 97.5509 11.7121C97.8549 10.0001 98.6229 8.56806 99.8549 7.41606C101.103 6.24806 102.591 5.66406 104.319 5.66406C106.015 5.66406 107.247 6.31206 108.015 7.60806L108.303 6.00006ZM103.359 15.3841C104.287 15.3841 105.111 15.0961 105.831 14.5201C106.551 13.9281 107.015 13.1521 107.223 12.1921L107.271 11.8081C107.399 10.8321 107.191 10.0561 106.647 9.48006C106.119 8.90406 105.399 8.61606 104.487 8.61606C103.543 8.61606 102.711 8.92006 101.991 9.52806C101.271 10.1201 100.823 10.9361 100.647 11.9761C100.471 12.9841 100.639 13.8081 101.151 14.4481C101.663 15.0721 102.399 15.3841 103.359 15.3841Z" fill="#8F9CAC"/>
<path d="M91.9542 5.66406C93.2982 5.66406 94.3382 6.11206 95.0742 7.00806C95.8102 7.90406 96.0422 9.11206 95.7702 10.6321L94.4742 18.0001H91.3782L92.6022 11.0161C92.7462 10.2001 92.6342 9.58406 92.2662 9.16806C91.9142 8.75206 91.3782 8.54406 90.6582 8.54406C89.9222 8.54406 89.2742 8.76006 88.7142 9.19206C88.1702 9.62406 87.7862 10.2721 87.5622 11.1361L86.3622 18.0001H83.2662L85.3782 6.00006H88.4742L88.2342 7.29606C89.1782 6.20806 90.4182 5.66406 91.9542 5.66406Z" fill="#8F9CAC"/>
<path d="M76.7125 4.00814C76.2805 4.37614 75.8005 4.56014 75.2725 4.56014C74.7445 4.56014 74.3285 4.37614 74.0245 4.00814C73.7205 3.62414 73.6085 3.17614 73.6885 2.66414C73.7685 2.13614 74.0246 1.68814 74.4566 1.32014C74.8886 0.936141 75.3685 0.744141 75.8965 0.744141C76.4245 0.744141 76.8405 0.936141 77.1445 1.32014C77.4645 1.70414 77.5845 2.15214 77.5045 2.66414C77.4085 3.19214 77.1445 3.64014 76.7125 4.00814ZM71.3365 18.0001L73.4485 6.00014H76.5445L74.4325 18.0001H71.3365Z" fill="#8F9CAC"/>
<path d="M71.7781 6.0002L65.9941 11.9282L69.8101 18.0002H66.4501L63.0181 12.3602L62.0341 18.0002H58.9381L61.8901 1.2002H64.9861L63.2581 11.0642L68.1061 6.0002H71.7781Z" fill="#8F9CAC"/>
<path d="M55.1233 6.00006H58.2193L56.1073 18.0001H53.0113L53.2033 16.8961C52.1633 17.8561 50.8353 18.3361 49.2193 18.3361C47.4113 18.3361 46.0673 17.6721 45.1873 16.3441C44.3073 15.0161 44.0353 13.4721 44.3713 11.7121C44.6753 10.0001 45.4433 8.56806 46.6753 7.41606C47.9233 6.24806 49.4113 5.66406 51.1393 5.66406C52.8353 5.66406 54.0673 6.31206 54.8353 7.60806L55.1233 6.00006ZM50.1793 15.3841C51.1073 15.3841 51.9313 15.0961 52.6513 14.5201C53.3713 13.9281 53.8353 13.1521 54.0433 12.1921L54.0913 11.8081C54.2193 10.8321 54.0113 10.0561 53.4673 9.48006C52.9393 8.90406 52.2193 8.61606 51.3073 8.61606C50.3633 8.61606 49.5313 8.92006 48.8113 9.52806C48.0913 10.1201 47.6433 10.9361 47.4673 11.9761C47.2913 12.9841 47.4593 13.8081 47.9713 14.4481C48.4833 15.0721 49.2193 15.3841 50.1793 15.3841Z" fill="#8F9CAC"/>
<path d="M37.5768 18.3361C35.1288 18.3361 33.5048 17.3521 32.7048 15.3841L35.4888 13.9921C35.8088 15.0161 36.5928 15.5281 37.8408 15.5281C38.8808 15.5281 39.4648 15.2161 39.5928 14.5921C39.6408 14.2561 39.4648 13.9841 39.0648 13.7761C38.6648 13.5681 38.1688 13.3761 37.5768 13.2001C36.9848 13.0241 36.4008 12.8161 35.8248 12.5761C35.2488 12.3201 34.7928 11.9041 34.4568 11.3281C34.1208 10.7521 34.0248 10.0401 34.1688 9.19206C34.3768 8.07206 34.9448 7.20806 35.8728 6.60006C36.8168 5.97606 37.8728 5.66406 39.0408 5.66406C40.0808 5.66406 40.9928 5.88806 41.7768 6.33606C42.5608 6.78406 43.1368 7.40806 43.5048 8.20806L40.7208 9.60006C40.4328 8.80006 39.8168 8.40006 38.8728 8.40006C37.9448 8.40006 37.4088 8.74406 37.2648 9.43206C37.2008 9.80006 37.3608 10.0881 37.7448 10.2961C38.1448 10.5041 38.6408 10.6881 39.2328 10.8481C39.8408 11.0081 40.4328 11.2081 41.0088 11.4481C41.6008 11.6721 42.0648 12.0721 42.4008 12.6481C42.7368 13.2081 42.8248 13.9361 42.6648 14.8321C42.4568 16.0001 41.8888 16.8801 40.9608 17.4721C40.0488 18.0481 38.9208 18.3361 37.5768 18.3361Z" fill="#8F9CAC"/>
<path d="M32.5329 4.00814C32.1009 4.37614 31.6209 4.56014 31.0929 4.56014C30.5649 4.56014 30.1489 4.37614 29.8449 4.00814C29.5409 3.62414 29.4289 3.17614 29.5089 2.66414C29.5889 2.13614 29.8449 1.68814 30.2769 1.32014C30.7089 0.936141 31.1889 0.744141 31.7169 0.744141C32.2449 0.744141 32.6609 0.936141 32.9649 1.32014C33.2849 1.70414 33.4049 2.15214 33.3249 2.66414C33.2289 3.19214 32.9649 3.64014 32.5329 4.00814ZM27.1569 18.0001L29.2689 6.00014H32.3649L30.2529 18.0001H27.1569Z" fill="#8F9CAC"/>
<path d="M22.0402 5.6642C23.3842 5.6642 24.4242 6.1122 25.1602 7.0082C25.8962 7.9042 26.1282 9.1122 25.8562 10.6322L24.5602 18.0002H21.4642L22.6882 11.0162C22.8322 10.2002 22.7202 9.5842 22.3522 9.1682C22.0002 8.7522 21.4642 8.5442 20.7442 8.5442C20.0082 8.5442 19.3602 8.7602 18.8002 9.1922C18.2562 9.6242 17.8722 10.2802 17.6482 11.1602L16.4482 18.0002H13.3522L16.3042 1.2002H19.4002L18.3202 7.3202C19.2482 6.2162 20.4882 5.6642 22.0402 5.6642Z" fill="#8F9CAC"/>
<path d="M6.53077 18.3361C4.67477 18.3361 3.21877 17.7041 2.16277 16.4401C1.12277 15.1601 0.75477 13.6001 1.05877 11.7601C1.33077 10.0001 2.13877 8.54406 3.48277 7.39206C4.84277 6.24006 6.42677 5.66406 8.23477 5.66406C9.46677 5.66406 10.5228 5.95206 11.4028 6.52806C12.2828 7.08806 12.9148 7.84006 13.2988 8.78406L10.4908 10.2721C10.0588 9.23206 9.21877 8.71206 7.97077 8.71206C7.04277 8.71206 6.21077 9.01606 5.47477 9.62406C4.75477 10.2161 4.31477 10.9841 4.15477 11.9281C3.99477 12.8881 4.16277 13.6881 4.65877 14.3281C5.15477 14.9521 5.86677 15.2641 6.79477 15.2641C8.04277 15.2641 9.03477 14.7281 9.77077 13.6561L12.2668 15.2641C11.6588 16.2561 10.8428 17.0161 9.81877 17.5441C8.81077 18.0721 7.71477 18.3361 6.53077 18.3361Z" fill="#8F9CAC"/>
</svg>
