<svg width="14" height="14" viewBox="0 0 14 14" fill="none" xmlns="http://www.w3.org/2000/svg">
<path d="M6.53077 13.336C4.67477 13.336 3.21877 12.704 2.16277 11.44C1.12277 10.16 0.75477 8.6 1.05877 6.76C1.33077 5 2.13877 3.544 3.48277 2.392C4.84277 1.24 6.42677 0.664001 8.23477 0.664001C9.46677 0.664001 10.5228 0.952002 11.4028 1.528C12.2828 2.088 12.9148 2.84 13.2988 3.784L10.4908 5.272C10.0588 4.232 9.21877 3.712 7.97077 3.712C7.04277 3.712 6.21077 4.016 5.47477 4.624C4.75477 5.216 4.31477 5.984 4.15477 6.928C3.99477 7.888 4.16277 8.688 4.65877 9.328C5.15477 9.952 5.86677 10.264 6.79477 10.264C8.04277 10.264 9.03477 9.728 9.77077 8.656L12.2668 10.264C11.6588 11.256 10.8428 12.016 9.81877 12.544C8.81077 13.072 7.71477 13.336 6.53077 13.336Z" fill="#3B526E"/>
</svg>
