<svg width="758" height="437" viewBox="0 0 758 437" fill="none" xmlns="http://www.w3.org/2000/svg">
<path d="M639.038 176.628C635.869 216.026 586.656 200.212 563.248 216.238C548.539 226.656 536.971 244.305 517.568 245.902C498.859 247.332 486.137 228.618 467.422 230.024C447.102 230.81 427.71 244.458 407.092 238.968C396.684 236.094 386.68 227.973 385.243 216.714C383.847 205.761 391.8 197.669 396.474 188.683C409.724 155.899 350.293 161.309 393.533 107.522C401.294 97.5013 399.4 85.1771 390.348 76.7847C378.635 61.9323 378.301 38.1127 400.83 34.453C417.824 29.6394 431.51 18.1537 446.677 9.64413C480.567 -12.4384 530.902 5.10401 541.093 44.9313C545.936 60.7436 538.581 74.8913 557.907 83.9674C593.643 95.633 585.635 98.6495 595.086 130.221C606.505 148.417 637.984 151.423 639.038 176.628Z" fill="#25292B"/>
<path d="M541.189 109.126C537.813 122.046 529.678 130.097 517.665 128.409L528.52 173.168L529.762 178.261L509.322 199.245C502.904 205.831 494.602 208.97 486.37 208.97C474.511 208.97 462.818 202.468 457.196 190.455L458.828 183.884L461.186 174.438L459.219 173.824C451.656 171.41 444.499 167.824 438.067 163.178C429.919 157.304 423.333 149.77 418.645 141.203C413.971 132.622 411.194 123.009 410.678 112.963L409.157 83.3703C410.329 78.2358 412.394 73.771 414.934 69.9341C423.64 56.6653 437.578 50.889 437.578 50.889C440.55 55.6607 444.024 59.7348 447.778 63.2788C469.934 84.026 502.374 84.919 504.536 84.9469L504.662 84.9609V85.1283C504.69 85.1283 504.718 85.1004 504.718 85.0864C508.68 80.7751 513.87 77.9567 519.423 77.1614C522.298 76.7568 525.283 76.9103 528.227 77.6637C541.05 81.0402 544.831 95.2438 541.189 109.126Z" fill="#F2E9DA"/>
<path d="M421.922 122.691C425.425 121.853 427.513 118.033 426.586 114.159C425.659 110.284 422.068 107.823 418.565 108.661C415.062 109.499 412.975 113.319 413.902 117.194C414.829 121.068 418.42 123.529 421.922 122.691Z" fill="#25292B"/>
<path d="M460.473 113.468C463.976 112.63 466.064 108.81 465.137 104.935C464.21 101.061 460.619 98.5997 457.116 99.4378C453.614 100.276 451.526 104.096 452.453 107.97C453.38 111.845 456.971 114.306 460.473 113.468Z" fill="#25292B"/>
<path d="M421.608 98.0147C416.424 97.6366 411.205 99.7881 408.068 104.013C407.444 104.853 407.396 106.136 408.288 106.834C409.093 107.465 410.442 107.511 411.109 106.614C411.417 106.199 411.744 105.8 412.098 105.423C412.271 105.239 412.451 105.062 412.634 104.888C412.654 104.87 412.676 104.85 412.698 104.832C412.796 104.748 412.895 104.666 412.996 104.584C413.396 104.258 413.817 103.957 414.253 103.681C414.47 103.543 414.694 103.413 414.918 103.285C414.959 103.262 414.996 103.24 415.027 103.225C415.153 103.162 415.281 103.1 415.408 103.042C415.878 102.827 416.359 102.639 416.851 102.478C417.096 102.397 417.343 102.325 417.593 102.259C417.717 102.226 417.843 102.195 417.968 102.166C417.975 102.164 417.97 102.166 417.975 102.164C417.99 102.161 417.982 102.164 418.011 102.159C418.521 102.069 419.03 101.998 419.546 101.963C419.804 101.947 420.061 101.937 420.319 101.935C420.448 101.934 420.577 101.937 420.706 101.94C420.741 101.94 420.757 101.94 420.771 101.94C420.796 101.941 420.812 101.942 420.847 101.945C421.886 102.02 423.022 101.515 423.192 100.36C423.336 99.3918 422.725 98.0956 421.608 98.0147Z" fill="#25292B"/>
<path d="M449.323 94.1067C449.999 95.0596 451.239 94.9954 452.132 94.4583C452.161 94.4401 452.174 94.4331 452.196 94.4192C452.209 94.4136 452.224 94.4052 452.255 94.3899C452.369 94.3299 452.482 94.2685 452.598 94.2113C452.828 94.0955 453.063 93.9881 453.3 93.8862C453.776 93.6839 454.263 93.5165 454.757 93.3658C454.784 93.3574 454.776 93.3588 454.791 93.3546C454.797 93.3532 454.793 93.3546 454.798 93.3532C454.924 93.3225 455.05 93.2932 455.175 93.2667C455.428 93.2123 455.682 93.1663 455.937 93.1258C456.448 93.0463 456.962 92.996 457.479 92.9765C457.62 92.9709 457.76 92.9681 457.901 92.9667C457.935 92.9681 457.98 92.9695 458.026 92.9709C458.284 92.9835 458.542 92.9974 458.799 93.0226C459.312 93.0714 459.824 93.1495 460.328 93.2583C460.453 93.2849 460.579 93.3156 460.704 93.3449C460.731 93.3518 460.76 93.3588 460.787 93.3658C461.028 93.4383 461.27 93.5151 461.507 93.6002C461.994 93.7746 462.465 93.9825 462.928 94.2127C463.929 94.7108 465.112 94.0592 465.543 93.1314C466.022 92.1059 465.398 90.9827 464.462 90.5167C459.753 88.1699 454.126 88.615 449.674 91.2994C448.715 91.8757 448.758 93.3086 449.323 94.1067Z" fill="#25292B"/>
<path d="M521.458 121.903C521.088 121.903 520.781 121.614 520.761 121.24C520.74 120.856 521.036 120.527 521.423 120.509C525.66 120.291 529.723 117.389 531.305 113.45C532.887 109.512 531.961 104.606 529.052 101.517C527.518 99.8871 525.593 98.916 523.769 98.8519C521.695 98.7263 519.787 99.9429 519.139 101.616C519.021 101.919 518.709 102.096 518.391 102.054C518.07 102.008 517.823 101.747 517.794 101.423C517.549 98.6328 517.411 95.3442 518.219 92.1184C519.08 88.6889 520.932 85.8998 523.432 84.2646C525.243 83.08 527.259 82.6656 528.961 83.1303C531.328 83.7679 532.836 85.8747 534.179 87.9787C534.386 88.3024 534.291 88.7335 533.966 88.9414C533.645 89.1465 533.212 89.0531 533.003 88.728C531.759 86.7788 530.485 84.9859 528.598 84.4767C527.273 84.1223 525.671 84.4697 524.196 85.4338C521.992 86.8751 520.35 89.3698 519.574 92.4575C518.999 94.7512 518.938 97.1106 519.042 99.2844C520.231 98.0956 521.978 97.3938 523.82 97.4552C526.041 97.5348 528.261 98.637 530.069 100.56C533.39 104.085 534.407 109.475 532.6 113.969C530.795 118.465 526.331 121.652 521.494 121.9C521.481 121.903 521.469 121.903 521.458 121.903Z" fill="#25292B"/>
<path d="M460.543 175.129C460.265 175.129 459.986 175.122 459.704 175.108C455.016 174.879 450.632 172.701 446.594 170.381C446.261 170.188 446.145 169.762 446.336 169.428C446.529 169.091 446.957 168.98 447.289 169.17C451.782 171.751 455.624 173.51 459.772 173.714C464.769 173.948 469.309 171.727 472.2 169.809C476.047 167.257 479.352 163.826 482.268 160.799C482.537 160.52 482.98 160.516 483.254 160.78C483.532 161.046 483.541 161.49 483.274 161.766C480.308 164.846 476.945 168.335 472.972 170.972C470.065 172.9 465.609 175.129 460.543 175.129Z" fill="#25292B"/>
<path d="M451.454 145.969C451.098 145.969 450.794 145.699 450.761 145.336C450.726 144.954 451.008 144.612 451.391 144.577C454.037 144.331 456.558 143.041 458.303 141.039C460.049 139.034 460.982 136.36 460.864 133.705C460.845 133.32 461.144 132.994 461.529 132.978C461.54 132.977 461.551 132.977 461.56 132.977C461.932 132.977 462.239 133.268 462.256 133.644C462.393 136.653 461.334 139.684 459.355 141.955C457.375 144.227 454.519 145.689 451.52 145.968C451.497 145.968 451.476 145.969 451.454 145.969Z" fill="#25292B"/>
<path d="M435.827 137.733C435.695 137.733 435.565 137.697 435.449 137.623C435.25 137.494 435.13 137.275 435.13 137.04L434.947 106.594C434.944 106.209 435.255 105.895 435.64 105.892H435.645C436.027 105.892 436.339 106.202 436.342 106.586L436.518 135.963L449.125 130.312C449.474 130.15 449.889 130.312 450.046 130.663C450.204 131.015 450.046 131.428 449.695 131.584L436.112 137.672C436.023 137.712 435.924 137.733 435.827 137.733Z" fill="#25292B"/>
<path d="M409.626 139.508C395.81 139.508 384.57 125.484 384.57 108.247C384.57 91.0106 395.81 76.9856 409.626 76.9856C423.44 76.9856 434.68 91.0106 434.68 108.247C434.68 125.484 423.44 139.508 409.626 139.508ZM409.626 79.7747C397.349 79.7747 387.361 92.5468 387.361 108.246C387.361 123.945 397.349 136.716 409.626 136.716C421.903 136.716 431.89 123.945 431.89 108.246C431.89 92.5468 421.901 79.7747 409.626 79.7747Z" fill="#0F4C75"/>
<path d="M461.571 128.102C447.755 128.102 436.515 114.078 436.515 96.8414C436.515 79.6046 447.755 65.581 461.571 65.581C475.385 65.581 486.625 79.6046 486.625 96.8414C486.625 114.078 475.385 128.102 461.571 128.102ZM461.571 68.3701C449.294 68.3701 439.306 81.1407 439.306 96.84C439.306 112.539 449.294 125.31 461.571 125.31C473.848 125.31 483.835 112.539 483.835 96.84C483.835 81.1407 473.848 68.3701 461.571 68.3701Z" fill="#0F4C75"/>
<path d="M484.4 90.3869C483.749 90.3869 483.167 89.9293 483.034 89.2651C482.884 88.5103 483.372 87.775 484.128 87.623L504.267 83.5823C505.02 83.4288 505.756 83.92 505.909 84.6762C506.06 85.431 505.572 86.1663 504.815 86.3184L484.676 90.359C484.583 90.38 484.492 90.3869 484.4 90.3869Z" fill="#0F4C75"/>
<path d="M433.112 106.084C432.408 106.084 431.804 105.552 431.727 104.836C431.644 104.07 432.2 103.382 432.966 103.3L437.763 102.787C438.55 102.707 439.216 103.261 439.299 104.026C439.381 104.792 438.826 105.479 438.06 105.562L433.263 106.075C433.211 106.081 433.161 106.084 433.112 106.084Z" fill="#0F4C75"/>
<path d="M644.563 434.637H261.847V394.496L363.658 365.977L381.727 248.065C385.41 223.997 402.055 203.905 425.021 195.813L458.828 183.884L457.195 190.455C462.818 202.468 474.51 208.97 486.37 208.97C494.602 208.97 502.904 205.831 509.322 199.245L529.762 178.261L528.52 173.168L616.309 176.475C647.66 180.102 672.049 205.412 674.519 236.875L686.49 389.277C688.415 413.736 669.091 434.637 644.563 434.637Z" fill="#0F4C75"/>
<path d="M457.195 190.455L451.455 434.637H510.664L529.762 178.261L457.195 190.455Z" fill="#F2E9DA"/>
<path d="M481.962 226.854C481.806 226.854 481.651 226.801 481.525 226.701C463.823 212.483 456.602 190.889 456.531 190.673C456.411 190.307 456.612 189.914 456.978 189.792C457.343 189.672 457.738 189.872 457.858 190.239C457.926 190.45 464.937 211.392 482.07 225.346C485.357 223.836 509.567 211.836 529.159 177.912C529.352 177.58 529.779 177.465 530.112 177.657C530.446 177.849 530.56 178.275 530.367 178.61C509.156 215.339 482.498 226.691 482.232 226.801C482.144 226.836 482.053 226.854 481.962 226.854Z" fill="#25292B"/>
<path d="M426.496 435.335C426.141 435.335 425.837 435.065 425.802 434.704L419.596 369.9C418.232 367.738 404.601 345.821 402.534 330.979C400.403 315.678 418.823 256.206 419.607 253.683C419.72 253.317 420.108 253.109 420.481 253.224C420.849 253.339 421.054 253.73 420.94 254.098C420.747 254.713 401.828 315.796 403.915 330.786C406.004 345.779 420.714 369.062 420.862 369.295C420.92 369.387 420.957 369.494 420.968 369.603L427.19 434.571C427.227 434.955 426.945 435.297 426.563 435.333C426.542 435.333 426.519 435.335 426.496 435.335Z" fill="#25292B"/>
<path d="M523.852 370.366C523.761 370.366 523.666 370.348 523.578 370.311C523.224 370.16 523.059 369.75 523.21 369.395C523.599 368.486 562.137 277.945 562.33 240.893C562.52 203.943 542.145 175.124 541.94 174.838C541.715 174.524 541.788 174.089 542.099 173.864C542.413 173.64 542.847 173.709 543.073 174.023C543.28 174.314 563.916 203.483 563.725 240.902C563.531 278.233 524.883 369.03 524.494 369.942C524.381 370.207 524.122 370.366 523.852 370.366Z" fill="#25292B"/>
<path d="M448.921 367.651C448.63 367.651 448.359 367.468 448.26 367.177C448.056 366.577 427.92 306.612 426.575 259.922C425.226 213.071 446.198 187.874 446.41 187.626C446.658 187.334 447.099 187.298 447.394 187.546C447.687 187.796 447.722 188.235 447.473 188.53C447.265 188.775 426.638 213.601 427.97 259.881C429.308 306.361 449.379 366.132 449.581 366.73C449.706 367.096 449.509 367.491 449.145 367.615C449.071 367.639 448.994 367.651 448.921 367.651Z" fill="#25292B"/>
<path d="M514.543 378.978L443.756 374.518C443.756 374.518 430.951 372.547 426.496 380.336C426.496 380.336 410.69 375.973 404.193 383.245C404.193 383.245 392.75 378.59 385.381 390.033C378.011 401.475 364.823 426.104 364.823 426.104H442.784C442.784 426.104 449.378 433.861 476.722 433.861C504.066 433.861 511.374 425.115 511.374 425.115L514.543 378.978Z" fill="#F2E9DA"/>
<path d="M514.543 379.674C514.529 379.674 514.513 379.674 514.499 379.673L451.412 375.698C451.028 375.673 450.735 375.342 450.759 374.958C450.783 374.574 451.062 374.255 451.499 374.305L514.586 378.28C514.97 378.305 515.263 378.636 515.239 379.02C515.215 379.389 514.91 379.674 514.543 379.674Z" fill="#25292B"/>
<path d="M510.667 435.335C510.649 435.335 510.632 435.335 510.614 435.333C510.23 435.304 509.941 434.969 509.969 434.585L514.459 374.318C514.485 373.974 514.758 373.701 515.101 373.674L609.157 366.319L592.979 260.008C592.92 259.627 593.183 259.271 593.564 259.214C593.945 259.161 594.3 259.418 594.358 259.799L610.648 366.852C610.678 367.044 610.625 367.238 610.505 367.39C610.385 367.542 610.206 367.637 610.012 367.653L515.804 375.021L511.359 434.693C511.334 435.055 511.027 435.335 510.667 435.335Z" fill="#25292B"/>
<path d="M531.223 433.329C531.181 433.329 531.138 433.325 531.094 433.318C530.716 433.247 530.465 432.883 530.535 432.505L541.137 374.874C541.208 374.496 541.561 374.255 541.951 374.315C542.329 374.386 542.58 374.75 542.51 375.128L531.908 432.759C531.845 433.095 531.552 433.329 531.223 433.329Z" fill="#25292B"/>
<path d="M476.792 434.54C453.399 434.542 444.049 427.997 442.537 426.801H414.779C414.533 426.83 407.093 427.529 403.072 423.892C401.423 422.402 400.589 420.405 400.589 417.958C400.589 409.878 407.467 408.274 407.536 408.258L459.273 401.074C459.627 401.021 460.005 401.285 460.058 401.67C460.111 402.051 459.845 402.402 459.463 402.455L407.78 409.631C407.597 409.674 401.983 411.024 401.983 417.959C401.983 419.995 402.662 421.643 404.004 422.857C407.564 426.081 414.636 425.417 414.707 425.411L442.787 425.407C442.954 425.407 443.119 425.469 443.246 425.58C443.346 425.667 453.71 434.34 482.966 433C483.369 432.954 483.677 433.279 483.694 433.664C483.713 434.049 483.415 434.376 483.03 434.393C480.85 434.492 478.769 434.54 476.792 434.54Z" fill="#25292B"/>
<path d="M392.074 426.801C392.019 426.801 391.965 426.794 391.909 426.781C391.534 426.691 391.305 426.313 391.397 425.938L393.209 418.493C395.038 410.982 399.032 404.272 404.758 399.085L426.028 379.817C426.313 379.558 426.755 379.579 427.013 379.864C427.273 380.15 427.25 380.591 426.966 380.849L405.695 400.117C400.176 405.118 396.326 411.586 394.563 418.822L392.75 426.267C392.675 426.587 392.389 426.801 392.074 426.801Z" fill="#25292B"/>
<path d="M381.117 426.802C381.051 426.802 380.984 426.792 380.919 426.772C380.549 426.663 380.338 426.275 380.447 425.906L384.859 410.949C386.268 406.171 388.555 401.774 391.655 397.877L403.649 382.808C403.889 382.507 404.331 382.458 404.629 382.696C404.931 382.936 404.981 383.376 404.741 383.677L392.748 398.746C389.758 402.501 387.554 406.739 386.197 411.344L381.785 426.301C381.696 426.605 381.418 426.802 381.117 426.802Z" fill="#25292B"/>
<path d="M442.142 426.104H129.197V436.964H442.142V426.104Z" fill="#0F4C75"/>
<path d="M129.197 426.104H343.85L274.088 253.89H59.4349L129.197 426.104Z" fill="#0F4C75"/>
<path d="M332.477 426.801H130.592C130.207 426.801 129.895 426.489 129.895 426.104C129.895 425.719 130.207 425.406 130.592 425.406H331.43L262.597 260.17C262.45 259.814 262.617 259.406 262.973 259.258C263.325 259.115 263.738 259.277 263.886 259.634L333.121 425.836C333.208 426.051 333.186 426.298 333.056 426.492C332.927 426.686 332.71 426.801 332.477 426.801Z" fill="#F2E9DA"/>
<path d="M757.259 435.335H1.52527C1.14019 435.335 0.827652 435.022 0.827652 434.637C0.827652 434.252 1.14019 433.939 1.52527 433.939H757.258C757.643 433.939 757.956 434.252 757.956 434.637C757.956 435.022 757.644 435.335 757.259 435.335Z" fill="#25292B"/>
</svg>
